# xmcd
# Track frame offsets:
# 150
# 12801
# 32127
# 46728
# 62154
# 79455
# 93456
# 113457
# 127222
# 142873
# 160174
# 175000
# 192751
# 210127
# 226678
#
# Disc length: 3257 seconds
# Revision: 2
# Processed by: cddbd v1.5.1PL0 Copyright (c) Steve Scherf et al.
# Submitted via: VisiTrax 2.9.10.228 - For more info visit www.synapsa.com
#
DISCID=b40cb70f
DTITLE=Various Artist - CB60003
DYEAR=1900
DGENRE=Karaoke Country
TTITLE0=White, Barry - So Much For Pretending
TTITLE1=Carter, Dena - Strawberry Wine
TTITLE2=Adkins, Trace - Every Light In The House Is On
TTITLE3=Clark, Terri - Poor Poor Pitiful Me
TTITLE4=Lawrence, Tracy - Stars Over Texas
TTITLE5=Carpenter, Mary Chapin - Let Me Into Your Heart
TTITLE6=Loveless, Patti - Lonely Too Long
TTITLE7=Montgomery, John Michael - Ain't Got Nothin' On Us
TTITLE8=McCready, Mindy - Guys Do It All The Time
TTITLE9=Byrd, Tracy - Big Love
TTITLE10=McEntire, Reba - Fear Of Being Alone, The
TTITLE11=Rimes, LeAnn - One Way Ticket
TTITLE12=Chesney, Kenny - Me and You
TTITLE13=Tritt, Travis - More Than You'll Ever Know
TTITLE14=Yearwood, Trisha - Believe Me Baby I Lied
EXTD=Chartbuster
EXTT0=
EXTT1=
EXTT2=
EXTT3=
EXTT4=
EXTT5=
EXTT6=
EXTT7=
EXTT8=
EXTT9=
EXTT10=
EXTT11=
EXTT12=
EXTT13=
EXTT14=
PLAYORDER=
